<svg width="12" height="5" viewBox="0 0 12 5" fill="none" xmlns="http://www.w3.org/2000/svg">
<path d="M11.7359 0.1912C11.5667 0.0687747 11.3373 1.23732e-07 11.098 1.23732e-07C10.8588 1.23732e-07 10.6294 0.0687747 10.4602 0.1912L5.99455 3.42372L1.52889 0.1912C1.35874 0.0722443 1.13086 0.00642219 0.894314 0.00791007C0.657772 0.00939796 0.4315 0.0780767 0.264234 0.199154C0.0969671 0.320232 0.00208952 0.484021 3.40371e-05 0.655245C-0.00202145 0.826468 0.0889106 0.991425 0.253245 1.11459L5.35673 4.8088C5.52591 4.93123 5.75533 5 5.99455 5C6.23377 5 6.4632 4.93123 6.63238 4.8088L11.7359 1.11459C11.905 0.992127 12 0.826055 12 0.652894C12 0.479733 11.905 0.313662 11.7359 0.1912Z" fill="#AAAAAA"/>
</svg>
