<svg width="12" height="5" viewBox="0 0 12 5" fill="none" xmlns="http://www.w3.org/2000/svg">
<path d="M0.264139 4.8088C0.433317 4.93123 0.662742 5 0.901961 5C1.14118 5 1.37061 4.93123 1.53978 4.8088L6.00545 1.57628L10.4711 4.8088C10.6413 4.92776 10.8691 4.99358 11.1057 4.99209C11.3422 4.9906 11.5685 4.92192 11.7358 4.80085C11.903 4.67977 11.9979 4.51598 12 4.34476C12.002 4.17353 11.9111 4.00857 11.7468 3.88541L6.64327 0.191199C6.47409 0.0687744 6.24467 0 6.00545 0C5.76623 0 5.5368 0.0687744 5.36762 0.191199L0.264139 3.88541C0.0950107 4.00787 0 4.17394 0 4.34711C0 4.52027 0.0950107 4.68634 0.264139 4.8088Z" fill="#AAAAAA"/>
</svg>
